<?xml version="1.0" encoding="UTF-8"?><svg xmlns="http://www.w3.org/2000/svg" xmlns:xlink="http://www.w3.org/1999/xlink" stroke-dasharray="none" shape-rendering="auto" font-family="'Dialog'" width="1137" text-rendering="auto" fill-opacity="1" contentScriptType="text/ecmascript" color-interpolation="auto" color-rendering="auto" preserveAspectRatio="xMidYMid meet" font-size="12px" xmlns:diagram="http://www.eclipse.org/sirius/diagram/1.1.0" diagram:semanticRoot="platform:/resource/projeto-arq/EstacionamentoSystem.sysadl#//@packages[name='EstacionamentoModulos']/@definitions[name='ModuloVagasCP']/@composite" viewBox="0 0 1137 718" fill="black" stroke="black" image-rendering="auto" stroke-miterlimit="10" zoomAndPan="magnify" version="1.0" stroke-linecap="square" stroke-linejoin="miter" contentStyleType="text/css" font-style="normal" height="718" stroke-width="1" stroke-dashoffset="0" font-weight="normal" stroke-opacity="1">
    <!--Generated by the Batik Graphics2D SVG Generator-->
    <defs id="genericDefs"/>
    <g>
        <defs id="defs1">
            <linearGradient x1="114" x2="1125" y1="10" gradientUnits="userSpaceOnUse" y2="10" xlink:type="simple" xlink:actuate="onLoad" id="linearGradient1" xlink:show="other" spreadMethod="pad">
                <stop stop-opacity="1" stop-color="white" offset="0%"/>
                <stop stop-opacity="1" stop-color="white" offset="100%"/>
            </linearGradient>
            <clipPath clipPathUnits="userSpaceOnUse" id="clipPath1">
                <path d="M113 9 L1128 9 L1128 709 L113 709 L113 9 Z"/>
            </clipPath>
            <clipPath clipPathUnits="userSpaceOnUse" id="clipPath2">
                <path d="M113 9 L1126 9 L1126 707 L113 707 L113 9 Z"/>
            </clipPath>
            <clipPath clipPathUnits="userSpaceOnUse" id="clipPath3">
                <path d="M114 14 L294 14 L294 30 L114 30 L114 14 Z"/>
            </clipPath>
            <clipPath clipPathUnits="userSpaceOnUse" id="clipPath4">
                <path d="M878 79 L1080 79 L1080 186 L878 186 L878 79 Z"/>
            </clipPath>
            <clipPath clipPathUnits="userSpaceOnUse" id="clipPath5">
                <path d="M878 79 L1083 79 L1083 186 L878 186 L878 79 Z"/>
            </clipPath>
            <clipPath clipPathUnits="userSpaceOnUse" id="clipPath6">
                <path d="M878 79 L1082 79 L1082 186 L878 186 L878 79 Z"/>
            </clipPath>
            <clipPath clipPathUnits="userSpaceOnUse" id="clipPath7">
                <path d="M953 176 L975 176 L975 198 L953 198 L953 176 Z"/>
            </clipPath>
            <clipPath clipPathUnits="userSpaceOnUse" id="clipPath8">
                <path d="M907 161 L1024 161 L1024 177 L907 177 L907 161 Z"/>
            </clipPath>
            <clipPath clipPathUnits="userSpaceOnUse" id="clipPath9">
                <path d="M428 239 L811 239 L811 447 L428 447 L428 239 Z"/>
            </clipPath>
            <clipPath clipPathUnits="userSpaceOnUse" id="clipPath10">
                <path d="M428 239 L814 239 L814 447 L428 447 L428 239 Z"/>
            </clipPath>
            <clipPath clipPathUnits="userSpaceOnUse" id="clipPath11">
                <path d="M428 239 L813 239 L813 447 L428 447 L428 239 Z"/>
            </clipPath>
            <clipPath clipPathUnits="userSpaceOnUse" id="clipPath12">
                <path d="M789 227 L811 227 L811 249 L789 249 L789 227 Z"/>
            </clipPath>
            <clipPath clipPathUnits="userSpaceOnUse" id="clipPath13">
                <path d="M810 233 L938 233 L938 249 L810 249 L810 233 Z"/>
            </clipPath>
            <clipPath clipPathUnits="userSpaceOnUse" id="clipPath14">
                <path d="M416 254 L438 254 L438 276 L416 276 L416 254 Z"/>
            </clipPath>
            <clipPath clipPathUnits="userSpaceOnUse" id="clipPath15">
                <path d="M437 257 L676 257 L676 273 L437 273 L437 257 Z"/>
            </clipPath>
            <clipPath clipPathUnits="userSpaceOnUse" id="clipPath16">
                <path d="M416 314 L438 314 L438 336 L416 336 L416 314 Z"/>
            </clipPath>
            <clipPath clipPathUnits="userSpaceOnUse" id="clipPath17">
                <path d="M437 317 L657 317 L657 333 L437 333 L437 317 Z"/>
            </clipPath>
            <clipPath clipPathUnits="userSpaceOnUse" id="clipPath18">
                <path d="M416 384 L438 384 L438 406 L416 406 L416 384 Z"/>
            </clipPath>
            <clipPath clipPathUnits="userSpaceOnUse" id="clipPath19">
                <path d="M437 387 L595 387 L595 403 L437 403 L437 387 Z"/>
            </clipPath>
            <clipPath clipPathUnits="userSpaceOnUse" id="clipPath20">
                <path d="M659 589 L811 589 L811 661 L659 661 L659 589 Z"/>
            </clipPath>
            <clipPath clipPathUnits="userSpaceOnUse" id="clipPath21">
                <path d="M659 589 L814 589 L814 661 L659 661 L659 589 Z"/>
            </clipPath>
            <clipPath clipPathUnits="userSpaceOnUse" id="clipPath22">
                <path d="M659 589 L813 589 L813 661 L659 661 L659 589 Z"/>
            </clipPath>
            <clipPath clipPathUnits="userSpaceOnUse" id="clipPath23">
                <path d="M659 589 L812 589 L812 661 L659 661 L659 589 Z"/>
            </clipPath>
            <clipPath clipPathUnits="userSpaceOnUse" id="clipPath24">
                <path d="M684 577 L706 577 L706 599 L684 599 L684 577 Z"/>
            </clipPath>
            <clipPath clipPathUnits="userSpaceOnUse" id="clipPath25">
                <path d="M614 562 L779 562 L779 578 L614 578 L614 562 Z"/>
            </clipPath>
            <clipPath clipPathUnits="userSpaceOnUse" id="clipPath26">
                <path d="M91 199 L123 199 L123 231 L91 231 L91 199 Z"/>
            </clipPath>
            <clipPath clipPathUnits="userSpaceOnUse" id="clipPath27">
                <path d="M9 170 L209 170 L209 200 L9 200 L9 170 Z"/>
            </clipPath>
            <clipPath clipPathUnits="userSpaceOnUse" id="clipPath28">
                <path d="M9 170 L208 170 L208 200 L9 200 L9 170 Z"/>
            </clipPath>
            <clipPath clipPathUnits="userSpaceOnUse" id="clipPath29">
                <path d="M91 288 L123 288 L123 320 L91 320 L91 288 Z"/>
            </clipPath>
            <clipPath clipPathUnits="userSpaceOnUse" id="clipPath30">
                <path d="M18 259 L199 259 L199 289 L18 289 L18 259 Z"/>
            </clipPath>
            <clipPath clipPathUnits="userSpaceOnUse" id="clipPath31">
                <path d="M18 259 L198 259 L198 289 L18 289 L18 259 Z"/>
            </clipPath>
            <clipPath clipPathUnits="userSpaceOnUse" id="clipPath32">
                <path d="M91 544 L123 544 L123 576 L91 576 L91 544 Z"/>
            </clipPath>
            <clipPath clipPathUnits="userSpaceOnUse" id="clipPath33">
                <path d="M122 545 L307 545 L307 575 L122 575 L122 545 Z"/>
            </clipPath>
            <clipPath clipPathUnits="userSpaceOnUse" id="clipPath34">
                <path d="M-1 -1 L1138 -1 L1138 719 L-1 719 L-1 -1 Z"/>
            </clipPath>
            <clipPath clipPathUnits="userSpaceOnUse" id="clipPath35">
                <path d="M456 472 L662 472 L662 488 L456 488 L456 472 Z"/>
            </clipPath>
            <clipPath clipPathUnits="userSpaceOnUse" id="clipPath36">
                <path d="M676 572 L688 572 L688 584 L676 584 L676 572 Z"/>
            </clipPath>
            <clipPath clipPathUnits="userSpaceOnUse" id="clipPath37">
                <path d="M718 183 L892 183 L892 199 L718 199 L718 183 Z"/>
            </clipPath>
            <clipPath clipPathUnits="userSpaceOnUse" id="clipPath38">
                <path d="M808 228 L821 228 L821 239 L808 239 L808 228 Z"/>
            </clipPath>
        </defs>
        <g font-size="10px" fill="rgb(131,122,133)" font-family="'Adwaita Sans'" stroke-linejoin="round" stroke="rgb(131,122,133)" stroke-width="0" stroke-miterlimit="1">
            <rect x="115" y="11" clip-path="url(#clipPath1)" width="1011" rx="0" opacity="0.255" ry="0" height="696" stroke="none"/>
            <rect x="116" y="12" clip-path="url(#clipPath1)" width="1011" rx="0" opacity="0.255" ry="0" height="696" stroke="none"/>
            <rect x="114" y="10" clip-path="url(#clipPath2)" fill="url(#linearGradient1)" width="1011" rx="0" ry="0" height="696" stroke="none"/>
        </g>
        <g font-size="10px" stroke-width="1.1" font-family="'Adwaita Sans'" stroke-linecap="butt">
            <rect x="114" y="10" clip-path="url(#clipPath2)" fill="none" width="1010" rx="0" ry="0" height="695"/>
            <text x="115" xml:space="preserve" y="25" clip-path="url(#clipPath3)" stroke="none"> ibd [Component] ModuloVagasCP</text>
            <rect x="879" y="80" clip-path="url(#clipPath4)" fill="rgb(126,177,254)" width="200" height="105" stroke="none"/>
            <rect x="879" y="80" clip-path="url(#clipPath4)" fill="none" width="199" height="104" stroke-width="0.1"/>
            <text x="937" xml:space="preserve" stroke-width="0.1" y="128" clip-path="url(#clipPath5)" stroke="none">&lt;&lt;component&gt;&gt;</text>
            <text x="896" xml:space="preserve" stroke-width="0.1" y="142" clip-path="url(#clipPath6)" stroke="none">sensorVaga:SensorVagaCP [1..*]</text>
        </g>
        <g fill="rgb(204,242,166)" stroke-width="0.1" font-family="'Adwaita Sans'" stroke-linecap="butt" stroke="rgb(204,242,166)">
            <rect x="954" width="20" height="20" y="177" clip-path="url(#clipPath7)" stroke="none"/>
            <rect x="954" y="177" clip-path="url(#clipPath7)" fill="none" width="19" height="19" stroke="black"/>
            <text x="908" font-size="10px" y="172" clip-path="url(#clipPath8)" fill="black" stroke="none" xml:space="preserve">statusVaga : VagaOPT</text>
            <rect x="429" y="240" clip-path="url(#clipPath9)" fill="rgb(126,177,254)" width="381" height="206" stroke="none"/>
            <rect x="429" y="240" clip-path="url(#clipPath9)" fill="none" width="380" height="205" stroke="black"/>
            <text x="578" font-size="10px" y="339" clip-path="url(#clipPath10)" fill="black" stroke="none" xml:space="preserve">&lt;&lt;component&gt;&gt;</text>
            <text x="505" font-size="10px" y="353" clip-path="url(#clipPath11)" fill="black" stroke="none" xml:space="preserve">gerenciadorVagas:GerenciadorVagasCP [1..1]</text>
            <rect x="790" width="20" height="20" y="228" clip-path="url(#clipPath12)" stroke="none"/>
            <rect x="790" y="228" clip-path="url(#clipPath12)" fill="none" width="19" height="19" stroke="black"/>
            <text x="811" font-size="10px" y="244" clip-path="url(#clipPath13)" fill="black" stroke="none" xml:space="preserve">deteccaoVaga : VagaIPT</text>
            <rect x="417" width="20" height="20" y="255" clip-path="url(#clipPath14)" stroke="none"/>
            <rect x="417" y="255" clip-path="url(#clipPath14)" fill="none" width="19" height="19" stroke="black"/>
            <text x="438" font-size="10px" y="268" clip-path="url(#clipPath15)" fill="black" stroke="none" xml:space="preserve">entradaContabilizada : InformacoesEntradaIPT</text>
            <rect x="417" width="20" height="20" y="315" clip-path="url(#clipPath16)" stroke="none"/>
            <rect x="417" y="315" clip-path="url(#clipPath16)" fill="none" width="19" height="19" stroke="black"/>
            <text x="438" font-size="10px" y="328" clip-path="url(#clipPath17)" fill="black" stroke="none" xml:space="preserve">saidaContabilizada : InformacoesSaidaIPT</text>
            <rect x="417" width="20" height="20" y="385" clip-path="url(#clipPath18)" stroke="none"/>
            <rect x="417" y="385" clip-path="url(#clipPath18)" fill="none" width="19" height="19" stroke="black"/>
            <text x="438" font-size="10px" y="398" clip-path="url(#clipPath19)" fill="black" stroke="none" xml:space="preserve">ocupacao : ControleVagasOPT</text>
            <rect x="660" y="590" clip-path="url(#clipPath20)" fill="rgb(126,177,254)" width="150" height="70" stroke="none"/>
            <rect x="660" y="590" clip-path="url(#clipPath20)" fill="none" width="149" height="69" stroke="black"/>
            <text x="693" font-size="10px" y="614" clip-path="url(#clipPath21)" fill="black" stroke="none" xml:space="preserve">&lt;&lt;component&gt;&gt;</text>
            <text x="661" font-size="10px" y="628" clip-path="url(#clipPath22)" fill="black" stroke="none" xml:space="preserve">painelVagas:PainelVagasCP </text>
            <text x="724" font-size="10px" y="642" clip-path="url(#clipPath23)" fill="black" stroke="none" xml:space="preserve">[1..1]</text>
            <rect x="685" width="20" height="20" y="578" clip-path="url(#clipPath24)" stroke="none"/>
            <rect x="685" y="578" clip-path="url(#clipPath24)" fill="none" width="19" height="19" stroke="black"/>
            <text x="615" font-size="10px" y="573" clip-path="url(#clipPath25)" fill="black" stroke="none" xml:space="preserve">exibirVagas : ControleVagasIPT</text>
        </g>
        <g font-size="10px" stroke-width="1.1" font-family="'Adwaita Sans'" stroke-linecap="butt">
            <line y2="34" fill="none" x1="115" clip-path="url(#clipPath1)" x2="291" y1="34"/>
            <line y2="34" fill="none" x1="291" clip-path="url(#clipPath1)" x2="291" y1="34"/>
            <line y2="29" fill="none" x1="291" clip-path="url(#clipPath1)" x2="296" y1="34"/>
            <line y2="29" fill="none" x1="296" clip-path="url(#clipPath1)" x2="296" y1="29"/>
            <line y2="10" fill="none" x1="296" clip-path="url(#clipPath1)" x2="296" y1="29"/>
            <rect x="92" y="200" clip-path="url(#clipPath26)" fill="rgb(209,209,209)" width="30" height="30" stroke="none"/>
            <rect x="92" y="200" clip-path="url(#clipPath26)" fill="none" width="29" height="29" stroke-width="0.1"/>
            <text x="10" xml:space="preserve" stroke-width="0.1" y="181" clip-path="url(#clipPath27)" stroke="none">&lt;&lt;proxy&gt;&gt;</text>
            <text x="10" xml:space="preserve" stroke-width="0.1" y="195" clip-path="url(#clipPath28)" stroke="none">entradasVagas:InformacoesEntradaIPT</text>
        </g>
        <g fill="rgb(209,209,209)" stroke-width="0.1" font-family="'Adwaita Sans'" stroke-linecap="butt" stroke="rgb(209,209,209)">
            <rect x="92" width="30" height="30" y="289" clip-path="url(#clipPath29)" stroke="none"/>
            <rect x="92" y="289" clip-path="url(#clipPath29)" fill="none" width="29" height="29" stroke="black"/>
            <text x="19" font-size="10px" y="270" clip-path="url(#clipPath30)" fill="black" stroke="none" xml:space="preserve">&lt;&lt;proxy&gt;&gt;</text>
            <text x="19" font-size="10px" y="284" clip-path="url(#clipPath31)" fill="black" stroke="none" xml:space="preserve">saidasVagas:InformacoesSaidaIPT</text>
            <rect x="92" width="30" height="30" y="545" clip-path="url(#clipPath32)" stroke="none"/>
            <rect x="92" y="545" clip-path="url(#clipPath32)" fill="none" width="29" height="29" stroke="black"/>
            <text x="123" font-size="10px" y="556" clip-path="url(#clipPath33)" fill="black" stroke="none" xml:space="preserve">&lt;&lt;proxy&gt;&gt;</text>
            <text x="123" font-size="10px" y="570" clip-path="url(#clipPath33)" fill="black" stroke="none" xml:space="preserve">ocupacaoVagas:ControleVagasOPT</text>
        </g>
        <g stroke-linecap="butt" font-size="10px" fill="rgb(136,136,136)" font-family="'Adwaita Sans'" stroke-dasharray="5,5" stroke="rgb(136,136,136)" stroke-width="2.1">
            <line y2="552" fill="none" x1="417" clip-path="url(#clipPath34)" x2="122" y1="400"/>
            <line clip-path="url(#clipPath34)" fill="none" x1="437" x2="685" y1="402" y2="581" stroke-dasharray="none"/>
            <text x="457" y="483" clip-path="url(#clipPath35)" fill="black" stroke-dasharray="none" stroke="none" xml:space="preserve">ocupacaoParaPainel : ControleVagasCN</text>
            <line clip-path="url(#clipPath36)" fill="none" x1="678" x2="685" y1="579" y2="581" stroke-dasharray="none"/>
            <line clip-path="url(#clipPath36)" fill="none" x1="685" x2="681" y1="581" y2="574" stroke-dasharray="none"/>
            <line clip-path="url(#clipPath34)" fill="none" x1="954" x2="810" y1="190" y2="235" stroke-dasharray="none"/>
            <text x="719" y="194" clip-path="url(#clipPath37)" fill="black" stroke-dasharray="none" stroke="none" xml:space="preserve">sensorParaGerenciador : VagaCN</text>
            <line clip-path="url(#clipPath38)" fill="none" x1="816" x2="810" y1="230" y2="235" stroke-dasharray="none"/>
            <line clip-path="url(#clipPath38)" fill="none" x1="810" x2="818" y1="235" y2="236" stroke-dasharray="none"/>
            <line y2="305" fill="none" x1="417" clip-path="url(#clipPath34)" x2="122" y1="324"/>
            <line y2="217" fill="none" x1="417" clip-path="url(#clipPath34)" x2="122" y1="263"/>
            <line clip-path="url(#clipPath34)" fill="none" x1="954" x2="810" y1="190" y2="235" stroke-dasharray="none"/>
            <text x="719" y="194" clip-path="url(#clipPath37)" fill="black" stroke-dasharray="none" stroke="none" xml:space="preserve">sensorParaGerenciador : VagaCN</text>
            <line clip-path="url(#clipPath38)" fill="none" x1="816" x2="810" y1="230" y2="235" stroke-dasharray="none"/>
            <line clip-path="url(#clipPath38)" fill="none" x1="810" x2="818" y1="235" y2="236" stroke-dasharray="none"/>
            <line clip-path="url(#clipPath34)" fill="none" x1="437" x2="685" y1="402" y2="581" stroke-dasharray="none"/>
            <text x="457" y="483" clip-path="url(#clipPath35)" fill="black" stroke-dasharray="none" stroke="none" xml:space="preserve">ocupacaoParaPainel : ControleVagasCN</text>
            <line clip-path="url(#clipPath36)" fill="none" x1="678" x2="685" y1="579" y2="581" stroke-dasharray="none"/>
            <line clip-path="url(#clipPath36)" fill="none" x1="685" x2="681" y1="581" y2="574" stroke-dasharray="none"/>
            <line y2="217" fill="none" x1="417" clip-path="url(#clipPath34)" x2="122" y1="263"/>
            <line y2="305" fill="none" x1="417" clip-path="url(#clipPath34)" x2="122" y1="324"/>
            <line y2="552" fill="none" x1="417" clip-path="url(#clipPath34)" x2="122" y1="400"/>
        </g>
    </g>
</svg>
