<?xml version="1.0" encoding="UTF-8"?><svg xmlns="http://www.w3.org/2000/svg" xmlns:xlink="http://www.w3.org/1999/xlink" stroke-dasharray="none" shape-rendering="auto" font-family="'Dialog'" width="1528" text-rendering="auto" fill-opacity="1" contentScriptType="text/ecmascript" color-interpolation="auto" color-rendering="auto" preserveAspectRatio="xMidYMid meet" font-size="12px" xmlns:diagram="http://www.eclipse.org/sirius/diagram/1.1.0" diagram:semanticRoot="platform:/resource/projeto-arq/EstacionamentoSystem.sysadl#//@packages[name='EstacionamentoModulos']/@definitions[name='SistemaEstacionamentoCP']/@composite" viewBox="0 0 1528 1043" fill="black" stroke="black" image-rendering="auto" stroke-miterlimit="10" zoomAndPan="magnify" version="1.0" stroke-linecap="square" stroke-linejoin="miter" contentStyleType="text/css" font-style="normal" height="1043" stroke-width="1" stroke-dashoffset="0" font-weight="normal" stroke-opacity="1">
    <!--Generated by the Batik Graphics2D SVG Generator-->
    <defs id="genericDefs"/>
    <g>
        <defs id="defs1">
            <linearGradient x1="10" x2="1516" y1="10" gradientUnits="userSpaceOnUse" y2="10" xlink:type="simple" xlink:actuate="onLoad" id="linearGradient1" xlink:show="other" spreadMethod="pad">
                <stop stop-opacity="1" stop-color="white" offset="0%"/>
                <stop stop-opacity="1" stop-color="white" offset="100%"/>
            </linearGradient>
            <clipPath clipPathUnits="userSpaceOnUse" id="clipPath1">
                <path d="M9 9 L1519 9 L1519 1034 L9 1034 L9 9 Z"/>
            </clipPath>
            <clipPath clipPathUnits="userSpaceOnUse" id="clipPath2">
                <path d="M9 9 L1517 9 L1517 1032 L9 1032 L9 9 Z"/>
            </clipPath>
            <clipPath clipPathUnits="userSpaceOnUse" id="clipPath3">
                <path d="M10 14 L239 14 L239 30 L10 30 L10 14 Z"/>
            </clipPath>
            <clipPath clipPathUnits="userSpaceOnUse" id="clipPath4">
                <path d="M24 767 L282 767 L282 992 L24 992 L24 767 Z"/>
            </clipPath>
            <clipPath clipPathUnits="userSpaceOnUse" id="clipPath5">
                <path d="M24 767 L285 767 L285 992 L24 992 L24 767 Z"/>
            </clipPath>
            <clipPath clipPathUnits="userSpaceOnUse" id="clipPath6">
                <path d="M24 767 L284 767 L284 992 L24 992 L24 767 Z"/>
            </clipPath>
            <clipPath clipPathUnits="userSpaceOnUse" id="clipPath7">
                <path d="M272 794 L294 794 L294 816 L272 816 L272 794 Z"/>
            </clipPath>
            <clipPath clipPathUnits="userSpaceOnUse" id="clipPath8">
                <path d="M102 797 L275 797 L275 813 L102 813 L102 797 Z"/>
            </clipPath>
            <clipPath clipPathUnits="userSpaceOnUse" id="clipPath9">
                <path d="M272 959 L294 959 L294 981 L272 981 L272 959 Z"/>
            </clipPath>
            <clipPath clipPathUnits="userSpaceOnUse" id="clipPath10">
                <path d="M293 962 L485 962 L485 978 L293 978 L293 962 Z"/>
            </clipPath>
            <clipPath clipPathUnits="userSpaceOnUse" id="clipPath11">
                <path d="M69 755 L91 755 L91 777 L69 777 L69 755 Z"/>
            </clipPath>
            <clipPath clipPathUnits="userSpaceOnUse" id="clipPath12">
                <path d="M18 740 L145 740 L145 756 L18 756 L18 740 Z"/>
            </clipPath>
            <clipPath clipPathUnits="userSpaceOnUse" id="clipPath13">
                <path d="M1104 669 L1446 669 L1446 901 L1104 901 L1104 669 Z"/>
            </clipPath>
            <clipPath clipPathUnits="userSpaceOnUse" id="clipPath14">
                <path d="M1104 669 L1449 669 L1449 901 L1104 901 L1104 669 Z"/>
            </clipPath>
            <clipPath clipPathUnits="userSpaceOnUse" id="clipPath15">
                <path d="M1104 669 L1448 669 L1448 901 L1104 901 L1104 669 Z"/>
            </clipPath>
            <clipPath clipPathUnits="userSpaceOnUse" id="clipPath16">
                <path d="M1364 657 L1386 657 L1386 679 L1364 679 L1364 657 Z"/>
            </clipPath>
            <clipPath clipPathUnits="userSpaceOnUse" id="clipPath17">
                <path d="M1287 642 L1465 642 L1465 658 L1287 658 L1287 642 Z"/>
            </clipPath>
            <clipPath clipPathUnits="userSpaceOnUse" id="clipPath18">
                <path d="M1092 679 L1114 679 L1114 701 L1092 701 L1092 679 Z"/>
            </clipPath>
            <clipPath clipPathUnits="userSpaceOnUse" id="clipPath19">
                <path d="M1113 682 L1338 682 L1338 698 L1113 698 L1113 682 Z"/>
            </clipPath>
            <clipPath clipPathUnits="userSpaceOnUse" id="clipPath20">
                <path d="M1092 869 L1114 869 L1114 891 L1092 891 L1092 869 Z"/>
            </clipPath>
            <clipPath clipPathUnits="userSpaceOnUse" id="clipPath21">
                <path d="M1113 872 L1287 872 L1287 888 L1113 888 L1113 872 Z"/>
            </clipPath>
            <clipPath clipPathUnits="userSpaceOnUse" id="clipPath22">
                <path d="M49 229 L422 229 L422 382 L49 382 L49 229 Z"/>
            </clipPath>
            <clipPath clipPathUnits="userSpaceOnUse" id="clipPath23">
                <path d="M49 229 L425 229 L425 382 L49 382 L49 229 Z"/>
            </clipPath>
            <clipPath clipPathUnits="userSpaceOnUse" id="clipPath24">
                <path d="M49 229 L424 229 L424 382 L49 382 L49 229 Z"/>
            </clipPath>
            <clipPath clipPathUnits="userSpaceOnUse" id="clipPath25">
                <path d="M120 217 L142 217 L142 239 L120 239 L120 217 Z"/>
            </clipPath>
            <clipPath clipPathUnits="userSpaceOnUse" id="clipPath26">
                <path d="M43 202 L222 202 L222 218 L43 218 L43 202 Z"/>
            </clipPath>
            <clipPath clipPathUnits="userSpaceOnUse" id="clipPath27">
                <path d="M199 372 L221 372 L221 394 L199 394 L199 372 Z"/>
            </clipPath>
            <clipPath clipPathUnits="userSpaceOnUse" id="clipPath28">
                <path d="M75 357 L348 357 L348 373 L75 373 L75 357 Z"/>
            </clipPath>
            <clipPath clipPathUnits="userSpaceOnUse" id="clipPath29">
                <path d="M190 217 L212 217 L212 239 L190 239 L190 217 Z"/>
            </clipPath>
            <clipPath clipPathUnits="userSpaceOnUse" id="clipPath30">
                <path d="M88 238 L316 238 L316 254 L88 254 L88 238 Z"/>
            </clipPath>
            <clipPath clipPathUnits="userSpaceOnUse" id="clipPath31">
                <path d="M609 734 L961 734 L961 976 L609 976 L609 734 Z"/>
            </clipPath>
            <clipPath clipPathUnits="userSpaceOnUse" id="clipPath32">
                <path d="M609 734 L964 734 L964 976 L609 976 L609 734 Z"/>
            </clipPath>
            <clipPath clipPathUnits="userSpaceOnUse" id="clipPath33">
                <path d="M609 734 L963 734 L963 976 L609 976 L609 734 Z"/>
            </clipPath>
            <clipPath clipPathUnits="userSpaceOnUse" id="clipPath34">
                <path d="M614 966 L636 966 L636 988 L614 988 L614 966 Z"/>
            </clipPath>
            <clipPath clipPathUnits="userSpaceOnUse" id="clipPath35">
                <path d="M524 951 L729 951 L729 967 L524 967 L524 951 Z"/>
            </clipPath>
            <clipPath clipPathUnits="userSpaceOnUse" id="clipPath36">
                <path d="M684 966 L706 966 L706 988 L684 988 L684 966 Z"/>
            </clipPath>
            <clipPath clipPathUnits="userSpaceOnUse" id="clipPath37">
                <path d="M705 969 L891 969 L891 985 L705 985 L705 969 Z"/>
            </clipPath>
            <clipPath clipPathUnits="userSpaceOnUse" id="clipPath38">
                <path d="M597 774 L619 774 L619 796 L597 796 L597 774 Z"/>
            </clipPath>
            <clipPath clipPathUnits="userSpaceOnUse" id="clipPath39">
                <path d="M618 777 L808 777 L808 793 L618 793 L618 777 Z"/>
            </clipPath>
            <clipPath clipPathUnits="userSpaceOnUse" id="clipPath40">
                <path d="M509 459 L786 459 L786 589 L509 589 L509 459 Z"/>
            </clipPath>
            <clipPath clipPathUnits="userSpaceOnUse" id="clipPath41">
                <path d="M509 459 L789 459 L789 589 L509 589 L509 459 Z"/>
            </clipPath>
            <clipPath clipPathUnits="userSpaceOnUse" id="clipPath42">
                <path d="M509 459 L788 459 L788 589 L509 589 L509 459 Z"/>
            </clipPath>
            <clipPath clipPathUnits="userSpaceOnUse" id="clipPath43">
                <path d="M640 579 L662 579 L662 601 L640 601 L640 579 Z"/>
            </clipPath>
            <clipPath clipPathUnits="userSpaceOnUse" id="clipPath44">
                <path d="M564 564 L740 564 L740 580 L564 580 L564 564 Z"/>
            </clipPath>
            <clipPath clipPathUnits="userSpaceOnUse" id="clipPath45">
                <path d="M497 479 L519 479 L519 501 L497 501 L497 479 Z"/>
            </clipPath>
            <clipPath clipPathUnits="userSpaceOnUse" id="clipPath46">
                <path d="M518 482 L789 482 L789 498 L518 498 L518 482 Z"/>
            </clipPath>
            <clipPath clipPathUnits="userSpaceOnUse" id="clipPath47">
                <path d="M710 579 L732 579 L732 601 L710 601 L710 579 Z"/>
            </clipPath>
            <clipPath clipPathUnits="userSpaceOnUse" id="clipPath48">
                <path d="M731 582 L956 582 L956 598 L731 598 L731 582 Z"/>
            </clipPath>
            <clipPath clipPathUnits="userSpaceOnUse" id="clipPath49">
                <path d="M549 24 L1107 24 L1107 239 L549 239 L549 24 Z"/>
            </clipPath>
            <clipPath clipPathUnits="userSpaceOnUse" id="clipPath50">
                <path d="M549 24 L1110 24 L1110 239 L549 239 L549 24 Z"/>
            </clipPath>
            <clipPath clipPathUnits="userSpaceOnUse" id="clipPath51">
                <path d="M549 24 L1109 24 L1109 239 L549 239 L549 24 Z"/>
            </clipPath>
            <clipPath clipPathUnits="userSpaceOnUse" id="clipPath52">
                <path d="M554 229 L576 229 L576 251 L554 251 L554 229 Z"/>
            </clipPath>
            <clipPath clipPathUnits="userSpaceOnUse" id="clipPath53">
                <path d="M498 214 L635 214 L635 230 L498 230 L498 214 Z"/>
            </clipPath>
            <clipPath clipPathUnits="userSpaceOnUse" id="clipPath54">
                <path d="M537 31 L559 31 L559 53 L537 53 L537 31 Z"/>
            </clipPath>
            <clipPath clipPathUnits="userSpaceOnUse" id="clipPath55">
                <path d="M558 34 L752 34 L752 50 L558 50 L558 34 Z"/>
            </clipPath>
            <clipPath clipPathUnits="userSpaceOnUse" id="clipPath56">
                <path d="M1097 169 L1119 169 L1119 191 L1097 191 L1097 169 Z"/>
            </clipPath>
            <clipPath clipPathUnits="userSpaceOnUse" id="clipPath57">
                <path d="M1118 172 L1311 172 L1311 188 L1118 188 L1118 172 Z"/>
            </clipPath>
            <clipPath clipPathUnits="userSpaceOnUse" id="clipPath58">
                <path d="M537 56 L559 56 L559 78 L537 78 L537 56 Z"/>
            </clipPath>
            <clipPath clipPathUnits="userSpaceOnUse" id="clipPath59">
                <path d="M558 59 L757 59 L757 75 L558 75 L558 59 Z"/>
            </clipPath>
            <clipPath clipPathUnits="userSpaceOnUse" id="clipPath60">
                <path d="M1014 229 L1036 229 L1036 251 L1014 251 L1014 229 Z"/>
            </clipPath>
            <clipPath clipPathUnits="userSpaceOnUse" id="clipPath61">
                <path d="M944 214 L1108 214 L1108 230 L944 230 L944 214 Z"/>
            </clipPath>
            <clipPath clipPathUnits="userSpaceOnUse" id="clipPath62">
                <path d="M784 229 L806 229 L806 251 L784 251 L784 229 Z"/>
            </clipPath>
            <clipPath clipPathUnits="userSpaceOnUse" id="clipPath63">
                <path d="M667 214 L925 214 L925 230 L667 230 L667 214 Z"/>
            </clipPath>
            <clipPath clipPathUnits="userSpaceOnUse" id="clipPath64">
                <path d="M-1 -1 L1529 -1 L1529 1044 L-1 1044 L-1 -1 Z"/>
            </clipPath>
            <clipPath clipPathUnits="userSpaceOnUse" id="clipPath65">
                <path d="M508 353 L788 353 L788 369 L508 369 L508 353 Z"/>
            </clipPath>
            <clipPath clipPathUnits="userSpaceOnUse" id="clipPath66">
                <path d="M776 247 L788 247 L788 259 L776 259 L776 247 Z"/>
            </clipPath>
            <clipPath clipPathUnits="userSpaceOnUse" id="clipPath67">
                <path d="M958 548 L1144 548 L1144 564 L958 564 L958 548 Z"/>
            </clipPath>
            <clipPath clipPathUnits="userSpaceOnUse" id="clipPath68">
                <path d="M1022 248 L1033 248 L1033 260 L1022 260 L1022 248 Z"/>
            </clipPath>
            <clipPath clipPathUnits="userSpaceOnUse" id="clipPath69">
                <path d="M404 920 L625 920 L625 936 L404 936 L404 920 Z"/>
            </clipPath>
            <clipPath clipPathUnits="userSpaceOnUse" id="clipPath70">
                <path d="M606 972 L618 972 L618 983 L606 983 L606 972 Z"/>
            </clipPath>
            <clipPath clipPathUnits="userSpaceOnUse" id="clipPath71">
                <path d="M772 927 L974 927 L974 943 L772 943 L772 927 Z"/>
            </clipPath>
            <clipPath clipPathUnits="userSpaceOnUse" id="clipPath72">
                <path d="M703 968 L716 968 L716 979 L703 979 L703 968 Z"/>
            </clipPath>
            <clipPath clipPathUnits="userSpaceOnUse" id="clipPath73">
                <path d="M1139 414 L1330 414 L1330 430 L1139 430 L1139 414 Z"/>
            </clipPath>
            <clipPath clipPathUnits="userSpaceOnUse" id="clipPath74">
                <path d="M1111 188 L1122 188 L1122 201 L1111 201 L1111 188 Z"/>
            </clipPath>
            <clipPath clipPathUnits="userSpaceOnUse" id="clipPath75">
                <path d="M538 672 L718 672 L718 688 L538 688 L538 672 Z"/>
            </clipPath>
            <clipPath clipPathUnits="userSpaceOnUse" id="clipPath76">
                <path d="M643 598 L653 598 L653 610 L643 610 L643 598 Z"/>
            </clipPath>
            <clipPath clipPathUnits="userSpaceOnUse" id="clipPath77">
                <path d="M238 116 L430 116 L430 132 L238 132 L238 116 Z"/>
            </clipPath>
            <clipPath clipPathUnits="userSpaceOnUse" id="clipPath78">
                <path d="M528 44 L541 44 L541 55 L528 55 L528 44 Z"/>
            </clipPath>
            <clipPath clipPathUnits="userSpaceOnUse" id="clipPath79">
                <path d="M247 495 L383 495 L383 511 L247 511 L247 495 Z"/>
            </clipPath>
            <clipPath clipPathUnits="userSpaceOnUse" id="clipPath80">
                <path d="M547 248 L559 248 L559 260 L547 260 L547 248 Z"/>
            </clipPath>
            <clipPath clipPathUnits="userSpaceOnUse" id="clipPath81">
                <path d="M770 663 L1017 663 L1017 679 L770 679 L770 663 Z"/>
            </clipPath>
            <clipPath clipPathUnits="userSpaceOnUse" id="clipPath82">
                <path d="M1083 680 L1096 680 L1096 691 L1083 691 L1083 680 Z"/>
            </clipPath>
            <clipPath clipPathUnits="userSpaceOnUse" id="clipPath83">
                <path d="M334 767 L529 767 L529 783 L334 783 L334 767 Z"/>
            </clipPath>
            <clipPath clipPathUnits="userSpaceOnUse" id="clipPath84">
                <path d="M291 799 L303 799 L303 810 L291 810 L291 799 Z"/>
            </clipPath>
            <clipPath clipPathUnits="userSpaceOnUse" id="clipPath85">
                <path d="M257 132 L478 132 L478 148 L257 148 L257 132 Z"/>
            </clipPath>
            <clipPath clipPathUnits="userSpaceOnUse" id="clipPath86">
                <path d="M528 70 L541 70 L541 81 L528 81 L528 70 Z"/>
            </clipPath>
            <clipPath clipPathUnits="userSpaceOnUse" id="clipPath87">
                <path d="M199 434 L520 434 L520 450 L199 450 L199 434 Z"/>
            </clipPath>
            <clipPath clipPathUnits="userSpaceOnUse" id="clipPath88">
                <path d="M218 385 L231 385 L231 395 L218 395 L218 385 Z"/>
            </clipPath>
        </defs>
        <g font-size="10px" fill="rgb(131,122,133)" font-family="'Adwaita Sans'" stroke-linejoin="round" stroke="rgb(131,122,133)" stroke-width="0" stroke-miterlimit="1">
            <rect x="11" y="11" clip-path="url(#clipPath1)" width="1506" rx="0" opacity="0.255" ry="0" height="1021" stroke="none"/>
            <rect x="12" y="12" clip-path="url(#clipPath1)" width="1506" rx="0" opacity="0.255" ry="0" height="1021" stroke="none"/>
            <rect x="10" y="10" clip-path="url(#clipPath2)" fill="url(#linearGradient1)" width="1506" rx="0" ry="0" height="1021" stroke="none"/>
        </g>
        <g font-size="10px" stroke-width="1.1" font-family="'Adwaita Sans'" stroke-linecap="butt">
            <rect x="10" y="10" clip-path="url(#clipPath2)" fill="none" width="1505" rx="0" ry="0" height="1020"/>
            <text x="11" xml:space="preserve" y="25" clip-path="url(#clipPath3)" stroke="none"> ibd [Component] SistemaEstacionamentoCP</text>
            <rect x="25" y="768" clip-path="url(#clipPath4)" fill="rgb(126,177,254)" width="256" height="223" stroke="none"/>
            <rect x="25" y="768" clip-path="url(#clipPath4)" fill="none" width="255" height="222" stroke-width="0.1"/>
            <text x="111" xml:space="preserve" stroke-width="0.1" y="875" clip-path="url(#clipPath5)" stroke="none">&lt;&lt;component&gt;&gt;</text>
            <text x="75" xml:space="preserve" stroke-width="0.1" y="889" clip-path="url(#clipPath6)" stroke="none">entrada:ModuloEntradaCP [1..1]</text>
        </g>
        <g fill="rgb(204,242,166)" stroke-width="0.1" font-family="'Adwaita Sans'" stroke-linecap="butt" stroke="rgb(204,242,166)">
            <rect x="273" width="20" height="20" y="795" clip-path="url(#clipPath7)" stroke="none"/>
            <rect x="273" y="795" clip-path="url(#clipPath7)" fill="none" width="19" height="19" stroke="black"/>
            <text x="103" font-size="10px" y="808" clip-path="url(#clipPath8)" fill="black" stroke="none" xml:space="preserve">vagasEntrada : ControleVagasIPT</text>
            <rect x="273" width="20" height="20" y="960" clip-path="url(#clipPath9)" stroke="none"/>
            <rect x="273" y="960" clip-path="url(#clipPath9)" fill="none" width="19" height="19" stroke="black"/>
            <text x="294" font-size="10px" y="973" clip-path="url(#clipPath10)" fill="black" stroke="none" xml:space="preserve">infoEntrada : InformacoesEntradaOPT</text>
            <rect x="70" width="20" height="20" y="756" clip-path="url(#clipPath11)" stroke="none"/>
            <rect x="70" y="756" clip-path="url(#clipPath11)" fill="none" width="19" height="19" stroke="black"/>
            <text x="19" font-size="10px" y="751" clip-path="url(#clipPath12)" fill="black" stroke="none" xml:space="preserve">novaSessao : TicketOPT</text>
            <rect x="1105" y="670" clip-path="url(#clipPath13)" fill="rgb(126,177,254)" width="340" height="230" stroke="none"/>
            <rect x="1105" y="670" clip-path="url(#clipPath13)" fill="none" width="339" height="229" stroke="black"/>
            <text x="1233" font-size="10px" y="781" clip-path="url(#clipPath14)" fill="black" stroke="none" xml:space="preserve">&lt;&lt;component&gt;&gt;</text>
            <text x="1206" font-size="10px" y="795" clip-path="url(#clipPath15)" fill="black" stroke="none" xml:space="preserve">saida:ModuloSaidaCP [1..1]</text>
            <rect x="1365" y="658" clip-path="url(#clipPath16)" fill="rgb(77,137,20)" width="20" height="20" stroke="none"/>
            <rect x="1365" y="658" clip-path="url(#clipPath16)" fill="none" width="19" height="19" stroke="black"/>
            <text x="1288" font-size="10px" y="653" clip-path="url(#clipPath17)" fill="black" stroke="none" xml:space="preserve">sessaoSaida : ConsultaSessaoO2I</text>
            <rect x="1093" width="20" height="20" y="680" clip-path="url(#clipPath18)" stroke="none"/>
            <rect x="1093" y="680" clip-path="url(#clipPath18)" fill="none" width="19" height="19" stroke="black"/>
            <text x="1114" font-size="10px" y="693" clip-path="url(#clipPath19)" fill="black" stroke="none" xml:space="preserve">emergenciaSaida : ComandoEmergenciaIPT</text>
            <rect x="1093" width="20" height="20" y="870" clip-path="url(#clipPath20)" stroke="none"/>
            <rect x="1093" y="870" clip-path="url(#clipPath20)" fill="none" width="19" height="19" stroke="black"/>
            <text x="1114" font-size="10px" y="883" clip-path="url(#clipPath21)" fill="black" stroke="none" xml:space="preserve">infoSaida : InformacoesSaidaOPT</text>
            <rect x="50" y="230" clip-path="url(#clipPath22)" fill="rgb(126,177,254)" width="371" height="151" stroke="none"/>
            <rect x="50" y="230" clip-path="url(#clipPath22)" fill="none" width="370" height="150" stroke="black"/>
            <text x="193" font-size="10px" y="301" clip-path="url(#clipPath23)" fill="black" stroke="none" xml:space="preserve">&lt;&lt;component&gt;&gt;</text>
            <text x="139" font-size="10px" y="315" clip-path="url(#clipPath24)" fill="black" stroke="none" xml:space="preserve">pagamento:ModuloPagamentoCP [1..1]</text>
            <rect x="121" y="218" clip-path="url(#clipPath25)" fill="rgb(77,137,20)" width="20" height="20" stroke="none"/>
            <rect x="121" y="218" clip-path="url(#clipPath25)" fill="none" width="19" height="19" stroke="black"/>
            <text x="44" font-size="10px" y="213" clip-path="url(#clipPath26)" fill="black" stroke="none" xml:space="preserve">sessaoTotem : ConsultaSessaoO2I</text>
            <rect x="200" width="20" height="20" y="373" clip-path="url(#clipPath27)" stroke="none"/>
            <rect x="200" y="373" clip-path="url(#clipPath27)" fill="none" width="19" height="19" stroke="black"/>
            <text x="76" font-size="10px" y="368" clip-path="url(#clipPath28)" fill="black" stroke="none" xml:space="preserve">configuracaoTotem : ConfiguracaoEstacionamentoIPT</text>
            <rect x="191" width="20" height="20" y="218" clip-path="url(#clipPath29)" stroke="none"/>
            <rect x="191" y="218" clip-path="url(#clipPath29)" fill="none" width="19" height="19" stroke="black"/>
            <text x="89" font-size="10px" y="249" clip-path="url(#clipPath30)" fill="black" stroke="none" xml:space="preserve">registroPagamento : RegistroPagamentoOPT</text>
            <rect x="610" y="735" clip-path="url(#clipPath31)" fill="rgb(126,177,254)" width="350" height="240" stroke="none"/>
            <rect x="610" y="735" clip-path="url(#clipPath31)" fill="none" width="349" height="239" stroke="black"/>
            <text x="743" font-size="10px" y="851" clip-path="url(#clipPath32)" fill="black" stroke="none" xml:space="preserve">&lt;&lt;component&gt;&gt;</text>
            <text x="713" font-size="10px" y="865" clip-path="url(#clipPath33)" fill="black" stroke="none" xml:space="preserve">vagas:ModuloVagasCP [1..1]</text>
            <rect x="615" width="20" height="20" y="967" clip-path="url(#clipPath34)" stroke="none"/>
            <rect x="615" y="967" clip-path="url(#clipPath34)" fill="none" width="19" height="19" stroke="black"/>
            <text x="525" font-size="10px" y="962" clip-path="url(#clipPath35)" fill="black" stroke="none" xml:space="preserve">entradasVagas : InformacoesEntradaIPT</text>
            <rect x="685" width="20" height="20" y="967" clip-path="url(#clipPath36)" stroke="none"/>
            <rect x="685" y="967" clip-path="url(#clipPath36)" fill="none" width="19" height="19" stroke="black"/>
            <text x="706" font-size="10px" y="980" clip-path="url(#clipPath37)" fill="black" stroke="none" xml:space="preserve">saidasVagas : InformacoesSaidaIPT</text>
            <rect x="598" width="20" height="20" y="775" clip-path="url(#clipPath38)" stroke="none"/>
            <rect x="598" y="775" clip-path="url(#clipPath38)" fill="none" width="19" height="19" stroke="black"/>
            <text x="619" font-size="10px" y="788" clip-path="url(#clipPath39)" fill="black" stroke="none" xml:space="preserve">ocupacaoVagas : ControleVagasOPT</text>
            <rect x="510" y="460" clip-path="url(#clipPath40)" fill="rgb(126,177,254)" width="275" height="128" stroke="none"/>
            <rect x="510" y="460" clip-path="url(#clipPath40)" fill="none" width="274" height="127" stroke="black"/>
            <text x="606" font-size="10px" y="520" clip-path="url(#clipPath41)" fill="black" stroke="none" xml:space="preserve">&lt;&lt;component&gt;&gt;</text>
            <text x="536" font-size="10px" y="534" clip-path="url(#clipPath42)" fill="black" stroke="none" xml:space="preserve">administracao:ModuloAdministracaoCP [1..1]</text>
            <rect x="641" width="20" height="20" y="580" clip-path="url(#clipPath43)" stroke="none"/>
            <rect x="641" y="580" clip-path="url(#clipPath43)" fill="none" width="19" height="19" stroke="black"/>
            <text x="565" font-size="10px" y="575" clip-path="url(#clipPath44)" fill="black" stroke="none" xml:space="preserve">ocupacaoAdm : ControleVagasIPT</text>
            <rect x="498" width="20" height="20" y="480" clip-path="url(#clipPath45)" stroke="none"/>
            <rect x="498" y="480" clip-path="url(#clipPath45)" fill="none" width="19" height="19" stroke="black"/>
            <text x="519" font-size="10px" y="493" clip-path="url(#clipPath46)" fill="black" stroke="none" xml:space="preserve">configuracaoAdm : ConfiguracaoEstacionamentoOPT</text>
            <rect x="711" width="20" height="20" y="580" clip-path="url(#clipPath47)" stroke="none"/>
            <rect x="711" y="580" clip-path="url(#clipPath47)" fill="none" width="19" height="19" stroke="black"/>
            <text x="732" font-size="10px" y="593" clip-path="url(#clipPath48)" fill="black" stroke="none" xml:space="preserve">emergenciaAdm : ComandoEmergenciaOPT</text>
            <rect x="550" y="25" clip-path="url(#clipPath49)" fill="rgb(126,177,254)" width="556" height="213" stroke="none"/>
            <rect x="550" y="25" clip-path="url(#clipPath49)" fill="none" width="555" height="212" stroke="black"/>
            <text x="786" font-size="10px" y="127" clip-path="url(#clipPath50)" fill="black" stroke="none" xml:space="preserve">&lt;&lt;component&gt;&gt;</text>
            <text x="743" font-size="10px" y="141" clip-path="url(#clipPath51)" fill="black" stroke="none" xml:space="preserve">bancoDados:BancoDadosCP [1..1]</text>
            <rect x="555" width="20" height="20" y="230" clip-path="url(#clipPath52)" stroke="none"/>
            <rect x="555" y="230" clip-path="url(#clipPath52)" fill="none" width="19" height="19" stroke="black"/>
            <text x="499" font-size="10px" y="225" clip-path="url(#clipPath53)" fill="black" stroke="none" xml:space="preserve">novaSessaoDB : TicketIPT</text>
            <rect x="538" y="32" clip-path="url(#clipPath54)" fill="rgb(77,137,20)" width="20" height="20" stroke="none"/>
            <rect x="538" y="32" clip-path="url(#clipPath54)" fill="none" width="19" height="19" stroke="black"/>
            <text x="559" font-size="10px" y="45" clip-path="url(#clipPath55)" fill="black" stroke="none" xml:space="preserve">sessaoTotemDB : ConsultaSessaoI2O</text>
            <rect x="1098" y="170" clip-path="url(#clipPath56)" fill="rgb(77,137,20)" width="20" height="20" stroke="none"/>
            <rect x="1098" y="170" clip-path="url(#clipPath56)" fill="none" width="19" height="19" stroke="black"/>
            <text x="1119" font-size="10px" y="183" clip-path="url(#clipPath57)" fill="black" stroke="none" xml:space="preserve">sessaoSaidaDB : ConsultaSessaoI2O</text>
            <rect x="538" width="20" height="20" y="57" clip-path="url(#clipPath58)" stroke="none"/>
            <rect x="538" y="57" clip-path="url(#clipPath58)" fill="none" width="19" height="19" stroke="black"/>
            <text x="559" font-size="10px" y="70" clip-path="url(#clipPath59)" fill="black" stroke="none" xml:space="preserve">pagamentoDB : RegistroPagamentoIPT</text>
            <rect x="1015" width="20" height="20" y="230" clip-path="url(#clipPath60)" stroke="none"/>
            <rect x="1015" y="230" clip-path="url(#clipPath60)" fill="none" width="19" height="19" stroke="black"/>
            <text x="945" font-size="10px" y="225" clip-path="url(#clipPath61)" fill="black" stroke="none" xml:space="preserve">saidaDB : InformacoesSaidaIPT</text>
            <rect x="785" width="20" height="20" y="230" clip-path="url(#clipPath62)" stroke="none"/>
            <rect x="785" y="230" clip-path="url(#clipPath62)" fill="none" width="19" height="19" stroke="black"/>
            <text x="668" font-size="10px" y="225" clip-path="url(#clipPath63)" fill="black" stroke="none" xml:space="preserve">configuracaoDB : ConfiguracaoEstacionamentoIPT</text>
        </g>
        <g font-size="10px" stroke-width="1.1" font-family="'Adwaita Sans'" stroke-linecap="butt">
            <line y2="34" fill="none" x1="11" clip-path="url(#clipPath1)" x2="236" y1="34"/>
            <line y2="34" fill="none" x1="236" clip-path="url(#clipPath1)" x2="236" y1="34"/>
            <line y2="29" fill="none" x1="236" clip-path="url(#clipPath1)" x2="241" y1="34"/>
            <line y2="29" fill="none" x1="241" clip-path="url(#clipPath1)" x2="241" y1="29"/>
            <line y2="10" fill="none" x1="241" clip-path="url(#clipPath1)" x2="241" y1="29"/>
            <line clip-path="url(#clipPath64)" fill="none" x1="518" x2="785" y1="481" y2="249" stroke="rgb(136,136,136)" stroke-width="2.1"/>
            <text x="509" xml:space="preserve" stroke-width="2.1" y="364" clip-path="url(#clipPath65)" stroke="none">configuracaoParaBD : ConfiguracaoEstacionamentoCN</text>
            <line clip-path="url(#clipPath66)" fill="none" x1="782" x2="785" y1="256" y2="249" stroke="rgb(136,136,136)" stroke-width="2.1"/>
            <line clip-path="url(#clipPath66)" fill="none" x1="785" x2="778" y1="249" y2="251" stroke="rgb(136,136,136)" stroke-width="2.1"/>
            <line clip-path="url(#clipPath64)" fill="none" x1="1102" x2="1026" y1="870" y2="250" stroke="rgb(136,136,136)" stroke-width="2.1"/>
            <text x="959" xml:space="preserve" stroke-width="2.1" y="559" clip-path="url(#clipPath67)" stroke="none">saidaParaBD : InformacoesSaidaCN</text>
            <line clip-path="url(#clipPath68)" fill="none" x1="1030" x2="1026" y1="257" y2="250" stroke="rgb(136,136,136)" stroke-width="2.1"/>
            <line clip-path="url(#clipPath68)" fill="none" x1="1026" x2="1024" y1="250" y2="257" stroke="rgb(136,136,136)" stroke-width="2.1"/>
            <line clip-path="url(#clipPath64)" fill="none" x1="293" x2="615" y1="977" y2="977" stroke="rgb(136,136,136)" stroke-width="2.1"/>
            <text x="405" xml:space="preserve" stroke-width="2.1" y="931" clip-path="url(#clipPath69)" stroke="none">entradaParaVagas : InformacoesEntradaCN</text>
            <line clip-path="url(#clipPath70)" fill="none" x1="608" x2="615" y1="980" y2="977" stroke="rgb(136,136,136)" stroke-width="2.1"/>
            <line clip-path="url(#clipPath70)" fill="none" x1="615" x2="608" y1="977" y2="974" stroke="rgb(136,136,136)" stroke-width="2.1"/>
            <line clip-path="url(#clipPath64)" fill="none" x1="1093" x2="705" y1="882" y2="975" stroke="rgb(136,136,136)" stroke-width="2.1"/>
            <text x="773" xml:space="preserve" stroke-width="2.1" y="938" clip-path="url(#clipPath71)" stroke="none">saidaParaVagas : InformacoesSaidaCN</text>
            <line clip-path="url(#clipPath72)" fill="none" x1="711" x2="705" y1="970" y2="975" stroke="rgb(136,136,136)" stroke-width="2.1"/>
            <line clip-path="url(#clipPath72)" fill="none" x1="705" x2="713" y1="975" y2="976" stroke="rgb(136,136,136)" stroke-width="2.1"/>
            <line clip-path="url(#clipPath64)" fill="none" x1="1370" x2="1113" y1="658" y2="190" stroke="rgb(136,136,136)" stroke-width="2.1"/>
            <text x="1140" xml:space="preserve" stroke-width="2.1" y="425" clip-path="url(#clipPath73)" stroke="none">sessaoSaidaBD : ConsultaSessaoCN</text>
            <line clip-path="url(#clipPath74)" fill="none" x1="1119" x2="1113" y1="195" y2="190" stroke="rgb(136,136,136)" stroke-width="2.1"/>
            <line clip-path="url(#clipPath74)" fill="none" x1="1113" x2="1114" y1="190" y2="198" stroke="rgb(136,136,136)" stroke-width="2.1"/>
            <line clip-path="url(#clipPath64)" fill="none" x1="610" x2="649" y1="775" y2="600" stroke="rgb(136,136,136)" stroke-width="2.1"/>
            <text x="539" xml:space="preserve" stroke-width="2.1" y="683" clip-path="url(#clipPath75)" stroke="none">vagasParaAdm : ControleVagasCN</text>
            <line clip-path="url(#clipPath76)" fill="none" x1="650" x2="649" y1="607" y2="600" stroke="rgb(136,136,136)" stroke-width="2.1"/>
            <line clip-path="url(#clipPath76)" fill="none" x1="649" x2="645" y1="600" y2="606" stroke="rgb(136,136,136)" stroke-width="2.1"/>
            <line clip-path="url(#clipPath64)" fill="none" x1="141" x2="538" y1="224" y2="46" stroke="rgb(136,136,136)" stroke-width="2.1"/>
            <text x="239" xml:space="preserve" stroke-width="2.1" y="127" clip-path="url(#clipPath77)" stroke="none">sessaoTotemBD : ConsultaSessaoCN</text>
            <line clip-path="url(#clipPath78)" fill="none" x1="533" x2="538" y1="52" y2="46" stroke="rgb(136,136,136)" stroke-width="2.1"/>
            <line clip-path="url(#clipPath78)" fill="none" x1="538" x2="530" y1="46" y2="46" stroke="rgb(136,136,136)" stroke-width="2.1"/>
            <line clip-path="url(#clipPath64)" fill="none" x1="89" x2="556" y1="756" y2="250" stroke="rgb(136,136,136)" stroke-width="2.1"/>
            <text x="248" xml:space="preserve" stroke-width="2.1" y="506" clip-path="url(#clipPath79)" stroke="none">entradaParaBD : TicketCN</text>
            <line clip-path="url(#clipPath80)" fill="none" x1="553" x2="556" y1="257" y2="250" stroke="rgb(136,136,136)" stroke-width="2.1"/>
            <line clip-path="url(#clipPath80)" fill="none" x1="556" x2="549" y1="250" y2="253" stroke="rgb(136,136,136)" stroke-width="2.1"/>
            <line clip-path="url(#clipPath64)" fill="none" x1="731" x2="1093" y1="593" y2="687" stroke="rgb(136,136,136)" stroke-width="2.1"/>
            <text x="771" xml:space="preserve" stroke-width="2.1" y="674" clip-path="url(#clipPath81)" stroke="none">emergenciaParaSaida : ComandoEmergenciaCN</text>
            <line clip-path="url(#clipPath82)" fill="none" x1="1085" x2="1093" y1="688" y2="687" stroke="rgb(136,136,136)" stroke-width="2.1"/>
            <line clip-path="url(#clipPath82)" fill="none" x1="1093" x2="1087" y1="687" y2="682" stroke="rgb(136,136,136)" stroke-width="2.1"/>
            <line clip-path="url(#clipPath64)" fill="none" x1="598" x2="293" y1="786" y2="804" stroke="rgb(136,136,136)" stroke-width="2.1"/>
            <text x="335" xml:space="preserve" stroke-width="2.1" y="778" clip-path="url(#clipPath83)" stroke="none">vagasParaEntrada : ControleVagasCN</text>
            <line clip-path="url(#clipPath84)" fill="none" x1="300" x2="293" y1="801" y2="804" stroke="rgb(136,136,136)" stroke-width="2.1"/>
            <line clip-path="url(#clipPath84)" fill="none" x1="293" x2="300" y1="804" y2="807" stroke="rgb(136,136,136)" stroke-width="2.1"/>
            <line clip-path="url(#clipPath64)" fill="none" x1="211" x2="538" y1="223" y2="72" stroke="rgb(136,136,136)" stroke-width="2.1"/>
            <text x="258" xml:space="preserve" stroke-width="2.1" y="143" clip-path="url(#clipPath85)" stroke="none">pagamentoParaBD : RegistroPagamentoCN</text>
            <line clip-path="url(#clipPath86)" fill="none" x1="533" x2="538" y1="78" y2="72" stroke="rgb(136,136,136)" stroke-width="2.1"/>
            <line clip-path="url(#clipPath86)" fill="none" x1="538" x2="530" y1="72" y2="72" stroke="rgb(136,136,136)" stroke-width="2.1"/>
            <line clip-path="url(#clipPath64)" fill="none" x1="498" x2="220" y1="486" y2="387" stroke="rgb(136,136,136)" stroke-width="2.1"/>
            <text x="200" xml:space="preserve" stroke-width="2.1" y="445" clip-path="url(#clipPath87)" stroke="none">configuracaoParaPagamento : ConfiguracaoEstacionamentoCN</text>
            <line clip-path="url(#clipPath88)" fill="none" x1="228" x2="220" y1="387" y2="387" stroke="rgb(136,136,136)" stroke-width="2.1"/>
            <line clip-path="url(#clipPath88)" fill="none" x1="220" x2="226" y1="387" y2="392" stroke="rgb(136,136,136)" stroke-width="2.1"/>
            <line clip-path="url(#clipPath64)" fill="none" x1="598" x2="293" y1="786" y2="804" stroke="rgb(136,136,136)" stroke-width="2.1"/>
            <text x="335" xml:space="preserve" stroke-width="2.1" y="778" clip-path="url(#clipPath83)" stroke="none">vagasParaEntrada : ControleVagasCN</text>
            <line clip-path="url(#clipPath84)" fill="none" x1="300" x2="293" y1="801" y2="804" stroke="rgb(136,136,136)" stroke-width="2.1"/>
            <line clip-path="url(#clipPath84)" fill="none" x1="293" x2="300" y1="804" y2="807" stroke="rgb(136,136,136)" stroke-width="2.1"/>
            <line clip-path="url(#clipPath64)" fill="none" x1="610" x2="649" y1="775" y2="600" stroke="rgb(136,136,136)" stroke-width="2.1"/>
            <text x="539" xml:space="preserve" stroke-width="2.1" y="683" clip-path="url(#clipPath75)" stroke="none">vagasParaAdm : ControleVagasCN</text>
            <line clip-path="url(#clipPath76)" fill="none" x1="650" x2="649" y1="607" y2="600" stroke="rgb(136,136,136)" stroke-width="2.1"/>
            <line clip-path="url(#clipPath76)" fill="none" x1="649" x2="645" y1="600" y2="606" stroke="rgb(136,136,136)" stroke-width="2.1"/>
            <line clip-path="url(#clipPath64)" fill="none" x1="293" x2="615" y1="977" y2="977" stroke="rgb(136,136,136)" stroke-width="2.1"/>
            <text x="405" xml:space="preserve" stroke-width="2.1" y="931" clip-path="url(#clipPath69)" stroke="none">entradaParaVagas : InformacoesEntradaCN</text>
            <line clip-path="url(#clipPath70)" fill="none" x1="608" x2="615" y1="980" y2="977" stroke="rgb(136,136,136)" stroke-width="2.1"/>
            <line clip-path="url(#clipPath70)" fill="none" x1="615" x2="608" y1="977" y2="974" stroke="rgb(136,136,136)" stroke-width="2.1"/>
            <line clip-path="url(#clipPath64)" fill="none" x1="1093" x2="705" y1="882" y2="975" stroke="rgb(136,136,136)" stroke-width="2.1"/>
            <text x="773" xml:space="preserve" stroke-width="2.1" y="938" clip-path="url(#clipPath71)" stroke="none">saidaParaVagas : InformacoesSaidaCN</text>
            <line clip-path="url(#clipPath72)" fill="none" x1="711" x2="705" y1="970" y2="975" stroke="rgb(136,136,136)" stroke-width="2.1"/>
            <line clip-path="url(#clipPath72)" fill="none" x1="705" x2="713" y1="975" y2="976" stroke="rgb(136,136,136)" stroke-width="2.1"/>
            <line clip-path="url(#clipPath64)" fill="none" x1="731" x2="1093" y1="593" y2="687" stroke="rgb(136,136,136)" stroke-width="2.1"/>
            <text x="771" xml:space="preserve" stroke-width="2.1" y="674" clip-path="url(#clipPath81)" stroke="none">emergenciaParaSaida : ComandoEmergenciaCN</text>
            <line clip-path="url(#clipPath82)" fill="none" x1="1085" x2="1093" y1="688" y2="687" stroke="rgb(136,136,136)" stroke-width="2.1"/>
            <line clip-path="url(#clipPath82)" fill="none" x1="1093" x2="1087" y1="687" y2="682" stroke="rgb(136,136,136)" stroke-width="2.1"/>
            <line clip-path="url(#clipPath64)" fill="none" x1="498" x2="220" y1="486" y2="387" stroke="rgb(136,136,136)" stroke-width="2.1"/>
            <text x="200" xml:space="preserve" stroke-width="2.1" y="445" clip-path="url(#clipPath87)" stroke="none">configuracaoParaPagamento : ConfiguracaoEstacionamentoCN</text>
            <line clip-path="url(#clipPath88)" fill="none" x1="228" x2="220" y1="387" y2="387" stroke="rgb(136,136,136)" stroke-width="2.1"/>
            <line clip-path="url(#clipPath88)" fill="none" x1="220" x2="226" y1="387" y2="392" stroke="rgb(136,136,136)" stroke-width="2.1"/>
            <line clip-path="url(#clipPath64)" fill="none" x1="89" x2="556" y1="756" y2="250" stroke="rgb(136,136,136)" stroke-width="2.1"/>
            <text x="248" xml:space="preserve" stroke-width="2.1" y="506" clip-path="url(#clipPath79)" stroke="none">entradaParaBD : TicketCN</text>
            <line clip-path="url(#clipPath80)" fill="none" x1="553" x2="556" y1="257" y2="250" stroke="rgb(136,136,136)" stroke-width="2.1"/>
            <line clip-path="url(#clipPath80)" fill="none" x1="556" x2="549" y1="250" y2="253" stroke="rgb(136,136,136)" stroke-width="2.1"/>
            <line clip-path="url(#clipPath64)" fill="none" x1="211" x2="538" y1="223" y2="72" stroke="rgb(136,136,136)" stroke-width="2.1"/>
            <text x="258" xml:space="preserve" stroke-width="2.1" y="143" clip-path="url(#clipPath85)" stroke="none">pagamentoParaBD : RegistroPagamentoCN</text>
            <line clip-path="url(#clipPath86)" fill="none" x1="533" x2="538" y1="78" y2="72" stroke="rgb(136,136,136)" stroke-width="2.1"/>
            <line clip-path="url(#clipPath86)" fill="none" x1="538" x2="530" y1="72" y2="72" stroke="rgb(136,136,136)" stroke-width="2.1"/>
            <line clip-path="url(#clipPath64)" fill="none" x1="1102" x2="1026" y1="870" y2="250" stroke="rgb(136,136,136)" stroke-width="2.1"/>
            <text x="959" xml:space="preserve" stroke-width="2.1" y="559" clip-path="url(#clipPath67)" stroke="none">saidaParaBD : InformacoesSaidaCN</text>
            <line clip-path="url(#clipPath68)" fill="none" x1="1030" x2="1026" y1="257" y2="250" stroke="rgb(136,136,136)" stroke-width="2.1"/>
            <line clip-path="url(#clipPath68)" fill="none" x1="1026" x2="1024" y1="250" y2="257" stroke="rgb(136,136,136)" stroke-width="2.1"/>
            <line clip-path="url(#clipPath64)" fill="none" x1="518" x2="785" y1="481" y2="249" stroke="rgb(136,136,136)" stroke-width="2.1"/>
            <text x="509" xml:space="preserve" stroke-width="2.1" y="364" clip-path="url(#clipPath65)" stroke="none">configuracaoParaBD : ConfiguracaoEstacionamentoCN</text>
            <line clip-path="url(#clipPath66)" fill="none" x1="782" x2="785" y1="256" y2="249" stroke="rgb(136,136,136)" stroke-width="2.1"/>
            <line clip-path="url(#clipPath66)" fill="none" x1="785" x2="778" y1="249" y2="251" stroke="rgb(136,136,136)" stroke-width="2.1"/>
            <line clip-path="url(#clipPath64)" fill="none" x1="1370" x2="1113" y1="658" y2="190" stroke="rgb(136,136,136)" stroke-width="2.1"/>
            <text x="1140" xml:space="preserve" stroke-width="2.1" y="425" clip-path="url(#clipPath73)" stroke="none">sessaoSaidaBD : ConsultaSessaoCN</text>
            <line clip-path="url(#clipPath74)" fill="none" x1="1119" x2="1113" y1="195" y2="190" stroke="rgb(136,136,136)" stroke-width="2.1"/>
            <line clip-path="url(#clipPath74)" fill="none" x1="1113" x2="1114" y1="190" y2="198" stroke="rgb(136,136,136)" stroke-width="2.1"/>
            <line clip-path="url(#clipPath64)" fill="none" x1="141" x2="538" y1="224" y2="46" stroke="rgb(136,136,136)" stroke-width="2.1"/>
            <text x="239" xml:space="preserve" stroke-width="2.1" y="127" clip-path="url(#clipPath77)" stroke="none">sessaoTotemBD : ConsultaSessaoCN</text>
            <line clip-path="url(#clipPath78)" fill="none" x1="533" x2="538" y1="52" y2="46" stroke="rgb(136,136,136)" stroke-width="2.1"/>
            <line clip-path="url(#clipPath78)" fill="none" x1="538" x2="530" y1="46" y2="46" stroke="rgb(136,136,136)" stroke-width="2.1"/>
        </g>
    </g>
</svg>
